PathFileType	4	(X/Y/Z)	/Users/niels/Desktop/University/Third Semester/Perception and Action/Exam/Gymnastics Motion Tracking/Code for Gym Tracking/Scripts/Analyzed Data/kraft_bad_id3_1_nmspeed_Sports2D/kraft_bad_id3_1_nmspeed_Sports2D_px_person00.trc
DataRate	CameraRate	NumFrames	NumMarkers	Units	OrigDataRate	OrigDataStartFrame	OrigNumFrames
49.404761904761905	49.404761904761905	7	22	m	49.404761904761905	56	84
Frame#	Time	Hip			RHip			RKnee			RAnkle			RBigToe			RSmallToe			RHeel			LHip			LKnee			LAnkle			LBigToe			LSmallToe			LHeel			Neck			Head			Nose			RShoulder			RElbow			RWrist			LShoulder			LElbow			LWrist		
		X1	Y1	Z1	X2	Y2	Z2	X3	Y3	Z3	X4	Y4	Z4	X5	Y5	Z5	X6	Y6	Z6	X7	Y7	Z7	X8	Y8	Z8	X9	Y9	Z9	X10	Y10	Z10	X11	Y11	Z11	X12	Y12	Z12	X13	Y13	Z13	X14	Y14	Z14	X15	Y15	Z15	X16	Y16	Z16	X17	Y17	Z17	X18	Y18	Z18	X19	Y19	Z19	X20	Y20	Z20	X21	Y21	Z21	X22	Y22	Z22
56	1.1334939759036144	1.1129932947674124	-0.4687121315982648	0.0	1.1329502484172886	-0.46403183635847234	0.0	1.2632061180378529	-0.3984744041197528	0.0	1.333145594569331	-0.4988504062994746	0.0	1.3851020371241278	-0.46164012818762495	0.0	1.3826196695840218	-0.47431860397595005	0.0	1.339708815942263	-0.5141592558097886	0.0	1.1046106553153567	-0.45083703395469926	0.0	1.0466674217290974	-0.350373183367333	0.0	1.1400062395959478	-0.25942633759834766	0.0	1.1430787269336045	-0.2383710160610889	0.0	1.116313006799971	-0.22092784795830125	0.0	1.1537602826643705	-0.25555598090449166	0.0	1.0614546663568227	-0.622623136338391	0.0	1.0224854057733104	-0.7073709781631367	0.0	1.0281830132499217	-0.6462660692240921	0.0	1.0806216425562862	-0.6150716160163169	0.0	1.0663635955910882	-0.7122101263776606	0.0	1.0639260836592521	-0.7895896626284518	0.0	1.0485774135462587	-0.6049498975946581	0.0	1.0493943326681536	-0.7031217426327553	0.0	1.0536297417122655	-0.7731770719341535	0.0
57	1.1537349397590362	1.130581171967703	-0.46675051643960064	0.0	1.1505721360816517	-0.4636680166442886	0.0	1.2897004279757758	-0.41284475720168173	0.0	1.349611772291518	-0.5246983031639258	0.0	1.408005865274716	-0.49226009468664395	0.0	1.4027806488071983	-0.5055993062135876	0.0	1.3552823395298887	-0.5412241809954483	0.0	1.122595503453469	-0.44909655916979313	0.0	1.0772703827335557	-0.33992613467584254	0.0	1.1830539577002817	-0.2610584878907581	0.0	1.1911434903056428	-0.23473236968702044	0.0	1.172211202279499	-0.2194563149993952	0.0	1.1975068131135123	-0.25802544815087175	0.0	1.0639780979131017	-0.6144701178662861	0.0	1.017608535112976	-0.6930294346308832	0.0	1.0288868447107125	-0.6336097172050689	0.0	1.083047910357716	-0.6076989991677265	0.0	1.0683151715491166	-0.7070550275078357	0.0	1.0654918157919033	-0.7859969905573823	0.0	1.051740915370051	-0.5963441506385665	0.0	1.053145208433767	-0.6973352642825889	0.0	1.0555770013845098	-0.7693520317377927	0.0
58	1.1739759036144577	1.1486566112793117	-0.46607451401696515	0.0	1.167976677105896	-0.46491431416783213	0.0	1.313030272851367	-0.4305384578569333	0.0	1.3610673250170087	-0.5516251094487489	0.0	1.4235259282328705	-0.5249223936232781	0.0	1.4166752953019923	-0.53835112284467	0.0	1.365578149108387	-0.5689025798989283	0.0	1.141414957980153	-0.4491918722091714	0.0	1.1097166450134726	-0.33389390792321155	0.0	1.2259382637899954	-0.2681243750778549	0.0	1.238851711935906	-0.23696927181082322	0.0	1.2257119848120495	-0.22399356805543189	0.0	1.2408908151260394	-0.2664119552489641	0.0	1.0670496032107397	-0.6054004053759663	0.0	1.0136929147326914	-0.6764419366329475	0.0	1.030692071802182	-0.6198196846854448	0.0	1.0859029684703914	-0.6001122112241365	0.0	1.0707828443171956	-0.7007191292136808	0.0	1.0670137210589121	-0.7811194935608837	0.0	1.05641726562593	-0.5870299771794786	0.0	1.0572967918652625	-0.6898922977775666	0.0	1.057768838860616	-0.763814775029073	0.0
59	1.1942168674698794	1.1672205180285828	-0.46693209724111023	0.0	1.185302454985895	-0.46797511312081336	0.0	1.333444851503643	-0.4512236611842313	0.0	1.3685177319417905	-0.5794168506917703	0.0	1.4331004656179729	-0.5590704281465149	0.0	1.4253186332332173	-0.5721424704143085	0.0	1.3716005384224925	-0.5970275165570498	0.0	1.1610307429659978	-0.45116394013686695	0.0	1.1434869103642982	-0.3322909309139448	0.0	1.2679851588609183	-0.2803034497988833	0.0	1.2855534628456244	-0.2447681148470779	0.0	1.276446694042367	-0.23407587086741619	0.0	1.2832228028822807	-0.2803370314785455	0.0	1.0710245109376246	-0.5956213787979462	0.0	1.011158532590479	-0.6580755497505414	0.0	1.0340024338110763	-0.6051323718325655	0.0	1.0895371053654188	-0.5924538448393354	0.0	1.0739050185811883	-0.6931996630472543	0.0	1.0684189102980823	-0.7747018524049633	0.0	1.0626866555689238	-0.5771051100659474	0.0	1.0618220882450764	-0.6806527209086228	0.0	1.0600526114452975	-0.7562144221590108	0.0
60	1.2144578313253012	1.1862266672409445	-0.4695368383142811	0.0	1.2026838432309344	-0.4730069957455045	0.0	1.3511526884958098	-0.47445623054333014	0.0	1.372998990404305	-0.6078251392997394	0.0	1.4381679549174897	-0.5940580505422257	0.0	1.4298499511155909	-0.6065155442482604	0.0	1.3744175198507271	-0.6254264189320433	0.0	1.1812720192586272	-0.4549832893438585	0.0	1.1780185377050298	-0.3350210452716189	0.0	1.3085865001686243	-0.2971629850726159	0.0	1.3306895367993432	-0.257827871714984	0.0	1.324203911157984	-0.24923349561784008	0.0	1.3239044274417586	-0.2992776507209187	0.0	1.0762295171248042	-0.5854461477693306	0.0	1.010432889545943	-0.6384445320470041	0.0	1.0391125260424463	-0.5899835843660293	0.0	1.0942798489312715	-0.5848288927203125	0.0	1.0777770971860325	-0.6846021481264144	0.0	1.0696172607446823	-0.7665752708389231	0.0	1.0705217155385258	-0.5668293069076284	0.0	1.0666466811398903	-0.6696788254355214	0.0	1.0622030625524235	-0.7463849102736502	0.0
61	1.234698795180723	1.2055741420623627	-0.47405131512480847	0.0	1.220212069435532	-0.48009463008936765	0.0	1.366302813296872	-0.49974713039581053	0.0	1.3754842222079695	-0.6365888926789455	0.0	1.4400501842689757	-0.6292131233177484	0.0	1.4314020539907095	-0.6410166519779218	0.0	1.3750734093160544	-0.6539540300057448	0.0	1.2018819474171607	-0.46059455071839644	0.0	1.2127335368003032	-0.3419353298658135	0.0	1.3471880912844587	-0.31822818481537074	0.0	1.3737133071746943	-0.27586418393759676	0.0	1.3688323419056954	-0.2690584354883974	0.0	1.3623971128497607	-0.3226616064720694	0.0	1.0829458565558483	-0.5752287287049157	0.0	1.0118977284563455	-0.6180011225115247	0.0	1.0462009302334054	-0.5748874677913354	0.0	1.1004047944874837	-0.5773412104250183	0.0	1.0824841605532705	-0.6750749006168509	0.0	1.0705498716415849	-0.7566010436262915	0.0	1.079858996559757	-0.5565834870454469	0.0	1.0717364031054821	-0.6571566750098101	0.0	1.0639950667533962	-0.7342892694215454	0.0
62	1.2549397590361444	1.2251497322230482	-0.48058959900472803	0.0	1.2379281155502344	-0.4892516718020645	0.0	1.3790523115871398	-0.5266737012292181	0.0	1.3768333362607355	-0.6655291194547002	0.0	1.4398691351767083	-0.6640211831682228	0.0	1.4309796049004113	-0.6753201584504971	0.0	1.37451684175379	-0.6825693881037056	0.0	1.2226381893053009	-0.4679660040439295	0.0	1.2471766774429256	-0.3528687281965599	0.0	1.383429489707839	-0.34308372499165307	0.0	1.4142299287939015	-0.29864642313292644	0.0	1.4103257200412973	-0.2932722674218866	0.0	1.3983406668196185	-0.3499769521343233	0.0	1.0914087959428957	-0.5652880336542194	0.0	1.0158819248579172	-0.5971009630331245	0.0	1.0554008701512614	-0.560282793110372	0.0	1.1081202742081464	-0.5701046317532946	0.0	1.088132638613464	-0.6647235234131963	0.0	1.0712660509073566	-0.7446198578223224	0.0	1.090663034681235	-0.5467650711330757	0.0	1.0771580081931942	-0.6432773825853899	0.0	1.0653255006634266	-0.7199203249481586	0.0
